# xmcd
#
# Track frame offsets: 
#        150
#        14507
#        31117
#        48158
#        59702
#        71738
#        84691
#        104638
#        140674
#        155902
#        187018
#        209497
#        225365
#
# Disc length: 3219 seconds
#
# Revision: 1
# Processed by: cddbd v1.5.2PL0 Copyright (c) Steve Scherf et al.
# Submitted via: ExactAudioCopy v0.99pb4
#
DISCID=c10c910d
DTITLE=Nine Below Zero - Give Me No Lip Child
DYEAR=2000
DGENRE=Blues
TTITLE0=Checkin´ Up On My Baby
TTITLE1=So Cold
TTITLE2=Nine Below Zero
TTITLE3=Give Me No Lip Child
TTITLE4=She´s All The Rage
TTITLE5=Hip Shake
TTITLE6=The Love You Bring
TTITLE7=Troubled Life
TTITLE8=You Know This
TTITLE9=Line Of Least Resistance
TTITLE10=Hand To Mouth
TTITLE11=Crawl ´n' Shake
TTITLE12=On The Road Again
EXTD=
EXTT0=
EXTT1=
EXTT2=
EXTT3=
EXTT4=
EXTT5=
EXTT6=
EXTT7=
EXTT8=
EXTT9=
EXTT10=
EXTT11=
EXTT12=
PLAYORDER=
